<?xml version="1.0" encoding="iso-8859-1"?>
<!-- Uploaded to: SVG Repo, www.svgrepo.com, Generator: SVG Repo Mixer Tools -->
<svg fill="#555555" height="800px" width="800px" version="1.1" id="Layer_1" xmlns="http://www.w3.org/2000/svg" xmlns:xlink="http://www.w3.org/1999/xlink" 
	 viewBox="0 0 512 512" xml:space="preserve">
<g>
	<g>
		<path d="M402.087,0c-9.121,0-241.921,0-258.783,0H76.522c-9.22,0-16.696,7.475-16.696,16.696v478.609
			c0,9.22,7.475,16.696,16.696,16.696c10.361,0,309.395,0,325.565,0c27.618,0,50.087-22.469,50.087-50.087V50.087
			C452.174,22.469,429.705,0,402.087,0z M126.609,478.609H93.217V33.391h33.391V478.609z M339.325,421.025h-99.866
			c-9.22,0-16.696-7.475-16.696-16.696c0-9.22,7.474-16.696,16.696-16.696h99.866c9.22,0,16.696,7.475,16.696,16.696
			C356.02,413.55,348.545,421.025,339.325,421.025z M339.325,362.271h-99.866c-9.22,0-16.696-7.475-16.696-16.696
			s7.474-16.696,16.696-16.696h99.866c9.22,0,16.696,7.475,16.696,16.696S348.545,362.271,339.325,362.271z M385.391,189.954
			c0,14.898-18.058,22.252-28.501,11.805l-32.717-32.716l-32.717,32.716c-10.475,10.479-28.501,3.059-28.501-11.805V33.391h122.435
			V189.954z"/>
	</g>
</g>
</svg>
